<?xml version="1.0" standalone="no"?><!DOCTYPE svg PUBLIC "-//W3C//DTD SVG 1.1//EN" "http://www.w3.org/Graphics/SVG/1.1/DTD/svg11.dtd"><svg t="1648038639721" class="icon" viewBox="0 0 1024 1024" version="1.1" xmlns="http://www.w3.org/2000/svg" p-id="8830" xmlns:xlink="http://www.w3.org/1999/xlink" width="200" height="200"><defs><style type="text/css">@font-face { font-family: feedback-iconfont; src: url("//at.alicdn.com/t/font_1031158_u69w8yhxdu.woff2?t=1630033759944") format("woff2"), url("//at.alicdn.com/t/font_1031158_u69w8yhxdu.woff?t=1630033759944") format("woff"), url("//at.alicdn.com/t/font_1031158_u69w8yhxdu.ttf?t=1630033759944") format("truetype"); }
</style></defs><path d="M512 192a96 96 0 0 1 96 96v227.52a64 64 0 0 0 18.24 44.8 160 160 0 1 1-228.48 0 64 64 0 0 0 18.24-44.8V288a96 96 0 0 1 96-96z m0-64a160 160 0 0 0-160 160v227.52a224 224 0 1 0 320 0V288a160 160 0 0 0-160-160z m32 488.576a64 64 0 1 1-64 0V288a32 32 0 1 1 64 0v328.576z" p-id="8831"></path></svg>
