<?xml version="1.0" standalone="no"?><!DOCTYPE svg PUBLIC "-//W3C//DTD SVG 1.1//EN" "http://www.w3.org/Graphics/SVG/1.1/DTD/svg11.dtd"><svg t="1648038664509" class="icon" viewBox="0 0 1024 1024" version="1.1" xmlns="http://www.w3.org/2000/svg" p-id="9238" xmlns:xlink="http://www.w3.org/1999/xlink" width="200" height="200"><defs><style type="text/css">@font-face { font-family: feedback-iconfont; src: url("//at.alicdn.com/t/font_1031158_u69w8yhxdu.woff2?t=1630033759944") format("woff2"), url("//at.alicdn.com/t/font_1031158_u69w8yhxdu.woff?t=1630033759944") format("woff"), url("//at.alicdn.com/t/font_1031158_u69w8yhxdu.ttf?t=1630033759944") format("truetype"); }
</style></defs><path d="M814.933333 349.866667C776.533333 217.6 652.8 128 512 128S247.466667 217.6 209.066667 349.866667C85.333333 379.733333 0 490.666667 0 618.666667 0 772.266667 123.733333 896 277.333333 896h469.333334c153.6 0 277.333333-123.733333 277.333333-277.333333 0-128-85.333333-238.933333-209.066667-268.8zM746.666667 810.666667h-469.333334C170.666667 810.666667 85.333333 725.333333 85.333333 618.666667c0-93.866667 68.266667-174.933333 162.133334-187.733334 17.066667-4.266667 29.866667-17.066667 34.133333-34.133333C307.2 290.133333 405.333333 213.333333 512 213.333333s204.8 76.8 230.4 183.466667c4.266667 17.066667 17.066667 29.866667 34.133333 34.133333 93.866667 12.8 162.133333 93.866667 162.133334 187.733334 0 106.666667-85.333333 192-192 192z" p-id="9239"></path><path d="M806.4 695.466667h-29.866667l17.066667-12.8c12.8-8.533333 17.066667-25.6 21.333333-38.4 0-17.066667-4.266667-29.866667-17.066666-38.4-21.333333-21.333333-51.2-21.333333-72.533334-4.266667l-12.8 12.8c-8.533333 8.533333-8.533333 21.333333-4.266666 29.866667 8.533333 8.533333 21.333333 8.533333 29.866666 4.266666l12.8-12.8c4.266667-4.266667 8.533333-4.266667 12.8 0 4.266667 0 4.266667 4.266667 4.266667 4.266667s0 4.266667-4.266667 8.533333l-64 51.2c-8.533333 4.266667-8.533333 17.066667-8.533333 25.6 4.266667 8.533333 12.8 12.8 21.333333 12.8h89.6c12.8 0 21.333333-8.533333 21.333334-21.333333s-8.533333-21.333333-17.066667-21.333333zM571.733333 469.333333c-59.733333 0-110.933333 51.2-110.933333 110.933334v46.933333c0 59.733333 51.2 110.933333 110.933333 110.933333s110.933333-51.2 110.933334-110.933333v-46.933333c-4.266667-59.733333-51.2-110.933333-110.933334-110.933334z m42.666667 157.866667c0 25.6-21.333333 46.933333-46.933333 46.933333s-46.933333-21.333333-46.933334-46.933333v-46.933333c0-25.6 21.333333-46.933333 46.933334-46.933334s46.933333 21.333333 46.933333 46.933334v46.933333zM345.6 533.333333h59.733333c17.066667 0 34.133333-12.8 34.133334-34.133333s-17.066667-29.866667-34.133334-29.866667H345.6C273.066667 469.333333 213.333333 529.066667 213.333333 601.6s59.733333 132.266667 132.266667 132.266667h59.733333c17.066667 0 34.133333-12.8 34.133334-34.133334s-12.8-34.133333-34.133334-34.133333H345.6c-38.4 0-68.266667-29.866667-68.266667-68.266667s29.866667-64 68.266667-64z" p-id="9240"></path></svg>
