<?xml version="1.0" standalone="no"?><!DOCTYPE svg PUBLIC "-//W3C//DTD SVG 1.1//EN" "http://www.w3.org/Graphics/SVG/1.1/DTD/svg11.dtd"><svg t="1648038679020" class="icon" viewBox="0 0 1024 1024" version="1.1" xmlns="http://www.w3.org/2000/svg" p-id="9635" xmlns:xlink="http://www.w3.org/1999/xlink" width="200" height="200"><defs><style type="text/css">@font-face { font-family: feedback-iconfont; src: url("//at.alicdn.com/t/font_1031158_u69w8yhxdu.woff2?t=1630033759944") format("woff2"), url("//at.alicdn.com/t/font_1031158_u69w8yhxdu.woff?t=1630033759944") format("woff"), url("//at.alicdn.com/t/font_1031158_u69w8yhxdu.ttf?t=1630033759944") format("truetype"); }
</style></defs><path d="M814.933333 349.866667C776.533333 217.6 652.8 128 512 128S247.466667 217.6 209.066667 349.866667C85.333333 379.733333 0 490.666667 0 618.666667 0 772.266667 123.733333 896 277.333333 896h469.333334c153.6 0 277.333333-123.733333 277.333333-277.333333 0-128-85.333333-238.933333-209.066667-268.8zM746.666667 810.666667h-469.333334C170.666667 810.666667 85.333333 725.333333 85.333333 618.666667c0-93.866667 68.266667-174.933333 162.133334-187.733334 17.066667-4.266667 29.866667-17.066667 34.133333-34.133333C307.2 290.133333 405.333333 213.333333 512 213.333333s204.8 76.8 230.4 183.466667c4.266667 17.066667 17.066667 29.866667 34.133333 34.133333 93.866667 12.8 162.133333 93.866667 162.133334 187.733334 0 106.666667-85.333333 192-192 192z" p-id="9636"></path><path d="M430.933333 469.333333c-17.066667 0-34.133333 12.8-34.133333 34.133334v110.933333l-106.666667-132.266667c-4.266667-12.8-21.333333-12.8-34.133333-8.533333-12.8 4.266667-21.333333 17.066667-21.333333 29.866667v204.8c0 17.066667 12.8 34.133333 34.133333 34.133333s29.866667-21.333333 29.866667-38.4v-110.933333L405.333333 725.333333c4.266667 8.533333 17.066667 12.8 25.6 12.8h8.533334c12.8-4.266667 21.333333-17.066667 21.333333-29.866666v-204.8c4.266667-17.066667-12.8-34.133333-29.866667-34.133334zM669.866667 469.333333c-17.066667 0-34.133333 12.8-34.133334 34.133334v68.266666h-72.533333v-68.266666c0-17.066667-12.8-34.133333-34.133333-34.133334s-34.133333 12.8-34.133334 34.133334v204.8c0 17.066667 12.8 34.133333 34.133334 34.133333s34.133333-12.8 34.133333-34.133333V640h72.533333v68.266667c0 17.066667 12.8 34.133333 34.133334 34.133333s34.133333-12.8 34.133333-34.133333v-204.8c-4.266667-17.066667-17.066667-34.133333-34.133333-34.133334zM780.8 584.533333h-25.6c-12.8 0-21.333333 8.533333-21.333333 21.333334s8.533333 21.333333 21.333333 21.333333h25.6c4.266667 0 4.266667 4.266667 4.266667 4.266667s0 8.533333-4.266667 8.533333h-25.6c-12.8 0-21.333333 8.533333-21.333333 21.333333s8.533333 21.333333 21.333333 21.333334h25.6c4.266667 0 4.266667 4.266667 4.266667 4.266666 0 4.266667-4.266667 4.266667-4.266667 4.266667h-25.6c-12.8 0-21.333333 8.533333-21.333333 21.333333s8.533333 21.333333 21.333333 21.333334h25.6c25.6 0 46.933333-21.333333 46.933333-46.933334 0-8.533333-4.266667-17.066667-8.533333-25.6 4.266667-8.533333 8.533333-17.066667 8.533333-25.6 0-25.6-21.333333-51.2-46.933333-51.2z" p-id="9637"></path></svg>
